<svg width="24" height="24" viewBox="0 0 24 24" fill="none" xmlns="http://www.w3.org/2000/svg">
<path d="M7.34761 8.69999L8.29681 2.39999H3.36001L1.29721 7.79999C1.23361 7.99199 1.20001 8.19119 1.20001 8.39999C1.20001 9.72479 2.58001 10.8 4.28521 10.8C5.85721 10.8 7.15681 9.88319 7.34761 8.69999ZM12 10.8C13.704 10.8 15.0852 9.72479 15.0852 8.39999C15.0852 8.35079 15.0816 8.30159 15.0792 8.25479L14.4684 2.39999H9.53161L8.91961 8.24999C8.91678 8.29995 8.91517 8.34996 8.91481 8.39999C8.91481 9.72479 10.296 10.8 12 10.8ZM18 12.0552V16.8H6.00001V12.0624C5.47441 12.252 4.89601 12.36 4.28521 12.36C4.05121 12.36 3.82441 12.3324 3.60001 12.3012V19.92C3.60001 20.844 4.35481 21.6 5.27761 21.6H18.72C19.644 21.6 20.4 20.8428 20.4 19.92V12.3024C20.1732 12.3372 19.9443 12.3569 19.7148 12.3612C19.1297 12.3606 18.5492 12.257 18 12.0552V12.0552ZM22.704 7.79999L20.6388 2.39999H15.7032L16.6512 8.69039C16.836 9.87839 18.1356 10.8 19.7148 10.8C21.4188 10.8 22.8 9.72479 22.8 8.39999C22.8 8.19119 22.7664 7.99199 22.704 7.79999Z" fill="#EF4432"/>
</svg>
