<svg width="16" height="20" viewBox="0 0 16 20" fill="none" xmlns="http://www.w3.org/2000/svg">
<path fill-rule="evenodd" clip-rule="evenodd" d="M13.254 5.40036C13.254 8.38289 10.9029 10.8007 8.00264 10.8007C5.10242 10.8007 2.75133 8.38289 2.75133 5.40036C2.75133 2.41782 5.10242 0 8.00264 0C10.9029 0 13.254 2.41782 13.254 5.40036ZM12.5099 13.8434C14.1796 14.1815 15.2697 14.7331 15.7369 15.6228C16.0877 16.3171 16.0877 17.1437 15.7369 17.8381C15.2697 18.7278 14.2229 19.3149 12.4926 19.6174C11.7216 19.7729 10.9412 19.874 10.1568 19.9199C9.4301 20 8.7034 20 7.96804 20H6.6444C6.36756 19.9644 6.09937 19.9466 5.83983 19.9466C5.0554 19.9063 4.27478 19.8082 3.50399 19.653C1.8343 19.3327 0.744241 18.7633 0.277073 17.8737C0.0967291 17.529 0.00165193 17.144 0.000232572 16.7527C-0.00352646 16.3589 0.0886753 15.9705 0.268422 15.6228C0.726938 14.7331 1.817 14.1548 3.50399 13.8434C4.27818 13.6915 5.06145 13.5934 5.84848 13.5498C7.28815 13.4338 8.73444 13.4338 10.1741 13.5498C10.9581 13.5955 11.7383 13.6936 12.5099 13.8434Z" fill="#868AA5"/>
</svg>
